<svg viewBox="0 0 20 20" fill="none" xmlns="http://www.w3.org/2000/svg">
  <path
    d="M9.81334 16.18C10.0485 16.1801 10.2754 16.2665 10.4511 16.4228C10.6267 16.5791 10.7389 16.7945 10.7663 17.028L10.7733 17.14V18.675C10.7724 18.9193 10.6784 19.154 10.5105 19.3314C10.3425 19.5087 10.1133 19.6154 9.86945 19.6297C9.62561 19.644 9.38549 19.5648 9.19801 19.4082C9.01052 19.2516 8.88977 19.0295 8.86034 18.787L8.85434 18.675V17.14C8.85434 16.61 9.28334 16.18 9.81334 16.18ZM5.31334 14.317C5.66034 14.663 5.68634 15.207 5.39334 15.583L5.31334 15.673L4.22834 16.76C4.05549 16.9317 3.82384 17.0312 3.58034 17.0384C3.33683 17.0457 3.09969 16.96 2.91696 16.7989C2.73423 16.6378 2.61959 16.4133 2.59626 16.1708C2.57294 15.9283 2.64267 15.686 2.79134 15.493L2.87134 15.403L3.95734 14.317C4.0464 14.2278 4.15217 14.1571 4.26859 14.1088C4.38502 14.0606 4.50981 14.0357 4.63584 14.0357C4.76187 14.0357 4.88666 14.0606 5.00308 14.1088C5.11951 14.1571 5.22427 14.2278 5.31334 14.317ZM15.6693 14.317L16.7553 15.403C16.8444 15.4921 16.9151 15.5979 16.9633 15.7143C17.0116 15.8307 17.0364 15.9555 17.0364 16.0815C17.0364 16.2075 17.0116 16.3323 16.9633 16.4487C16.9151 16.5651 16.8444 16.6709 16.7553 16.76C16.6662 16.8491 16.5605 16.9198 16.444 16.968C16.3276 17.0162 16.2028 17.041 16.0768 17.041C15.9508 17.041 15.8261 17.0162 15.7096 16.968C15.5932 16.9198 15.4874 16.8491 15.3983 16.76L14.3133 15.674C14.2242 15.585 14.1535 15.4792 14.1053 15.3629C14.0571 15.2465 14.0322 15.1218 14.0321 14.9959C14.0321 14.8699 14.0569 14.7452 14.105 14.6288C14.1532 14.5124 14.2238 14.4066 14.3128 14.3175C14.4019 14.2284 14.5076 14.1577 14.6239 14.1095C14.7403 14.0612 14.865 14.0364 14.991 14.0363C15.1169 14.0363 15.2417 14.061 15.3581 14.1092C15.4745 14.1573 15.5802 14.228 15.6693 14.317ZM9.81334 4.9C11.1172 4.90159 12.3672 5.42024 13.2891 6.3422C14.2111 7.26416 14.7298 8.51415 14.7313 9.818C14.7298 11.1218 14.2111 12.3718 13.2891 13.2938C12.3672 14.2158 11.1172 14.7344 9.81334 14.736C8.50967 14.7341 7.25993 14.2154 6.33819 13.2934C5.41644 12.3715 4.89793 11.1217 4.89634 9.818C4.89793 8.51433 5.41644 7.26449 6.33819 6.34256C7.25993 5.42062 8.50967 4.90185 9.81334 4.9ZM18.6713 8.858C18.7999 8.85385 18.9281 8.87559 19.0481 8.92194C19.1682 8.96829 19.2777 9.0383 19.3701 9.12781C19.4625 9.21732 19.5361 9.3245 19.5863 9.44298C19.6365 9.56146 19.6623 9.68882 19.6623 9.8175C19.6623 9.94618 19.6365 10.0735 19.5863 10.192C19.5361 10.3105 19.4625 10.4177 19.3701 10.5072C19.2777 10.5967 19.1682 10.6667 19.0481 10.7131C18.9281 10.7594 18.7999 10.7812 18.6713 10.777H17.1363C16.8817 10.777 16.6376 10.6759 16.4575 10.4958C16.2775 10.3158 16.1763 10.0716 16.1763 9.817C16.1763 9.56239 16.2775 9.31821 16.4575 9.13818C16.6376 8.95814 16.8817 8.857 17.1363 8.857L18.6713 8.858ZM2.49134 8.858C2.73428 8.86083 2.96712 8.95567 3.14289 9.12339C3.31867 9.29112 3.42431 9.51925 3.43852 9.7618C3.45273 10.0043 3.37444 10.2433 3.21945 10.4304C3.06446 10.6175 2.84429 10.7388 2.60334 10.77L2.49134 10.777H0.956339C0.712079 10.7761 0.477359 10.6821 0.299984 10.5141C0.122609 10.3462 0.0159187 10.117 0.00164234 9.87312C-0.012634 9.62927 0.0665773 9.38915 0.223144 9.20167C0.37971 9.01418 0.601856 8.89343 0.844339 8.864L0.956339 8.858H2.49134ZM16.7553 2.875C16.9352 3.05501 17.0362 3.29905 17.0362 3.5535C17.0362 3.80795 16.9352 4.05199 16.7553 4.232L15.6693 5.318C15.5816 5.41314 15.4756 5.48957 15.3577 5.5427C15.2397 5.59583 15.1122 5.62456 14.9828 5.62717C14.8535 5.62978 14.7249 5.60621 14.6049 5.55788C14.4849 5.50955 14.3758 5.43746 14.2844 5.34593C14.1929 5.25441 14.1209 5.14534 14.0727 5.02528C14.0244 4.90523 14.001 4.77665 14.0037 4.6473C14.0064 4.51794 14.0352 4.39046 14.0884 4.27252C14.1416 4.15458 14.2181 4.04862 14.3133 3.961L15.3983 2.875C15.5783 2.69516 15.8224 2.59414 16.0768 2.59414C16.3313 2.59414 16.5753 2.69516 16.7553 2.875ZM4.13834 2.795L4.22834 2.875L5.31434 3.961C5.48751 4.13362 5.58829 4.36581 5.59611 4.6102C5.60394 4.85458 5.51821 5.09274 5.35644 5.27608C5.19466 5.45942 4.96902 5.57412 4.72556 5.59678C4.4821 5.61944 4.23917 5.54834 4.04634 5.398L3.95634 5.318L2.87034 4.232C2.69582 4.05987 2.59384 3.82744 2.58534 3.58247C2.57684 3.33749 2.66248 3.09855 2.82465 2.91475C2.98683 2.73094 3.21324 2.61621 3.45736 2.59413C3.70149 2.57204 3.94481 2.64428 4.13734 2.796L4.13834 2.795ZM9.81334 0C10.3433 0 10.7733 0.43 10.7733 0.96V2.495C10.7733 2.74961 10.6722 2.99379 10.4922 3.17382C10.3121 3.35386 10.0679 3.455 9.81334 3.455C9.55873 3.455 9.31455 3.35386 9.13452 3.17382C8.95448 2.99379 8.85334 2.74961 8.85334 2.495V0.96C8.85334 0.43 9.28334 0 9.81334 0Z"
    fill="currentColor"
  />
</svg>
