<svg viewBox="0 0 20 20" fill="none" xmlns="http://www.w3.org/2000/svg">
  <path
    d="M19.502 11.3412C19.4006 11.3177 19.2953 11.317 19.1936 11.3391C19.0919 11.3612 18.9964 11.4057 18.914 11.4692C18.2401 12.0433 17.4699 12.4936 16.639 12.7992C15.8145 13.1109 14.9394 13.2669 14.058 13.2592C13.0705 13.2598 12.0926 13.0658 11.1801 12.6884C10.2676 12.3109 9.43845 11.7573 8.74001 11.0592C7.33139 9.64877 6.54074 7.73654 6.54201 5.74318C6.54201 4.87318 6.69501 4.03018 6.95201 3.26318C7.23201 2.44618 7.64201 1.70418 8.17801 1.06618C8.23204 0.999214 8.27228 0.922211 8.29641 0.839616C8.32054 0.757021 8.32808 0.670466 8.31859 0.584943C8.30911 0.499419 8.2828 0.416618 8.24116 0.341314C8.19953 0.26601 8.1434 0.199692 8.07601 0.146183C7.99358 0.082657 7.89808 0.0382225 7.7964 0.0160872C7.69471 -0.00604811 7.58938 -0.00533214 7.48801 0.0181835C5.31601 0.606183 3.42501 1.90918 2.07001 3.64818C0.72446 5.4097 -0.00306233 7.56556 9.68902e-06 9.78218C9.68902e-06 12.5692 1.12501 15.0992 2.96501 16.9392C3.90202 17.8827 5.01712 18.6306 6.24556 19.1396C7.474 19.6486 8.79131 19.9085 10.121 19.9042C12.473 19.9042 14.645 19.0862 16.383 17.7312C18.1743 16.3237 19.4359 14.3507 19.962 12.1342C19.988 12.0519 19.9966 11.9651 19.9872 11.8793C19.9777 11.7936 19.9505 11.7107 19.9072 11.6361C19.8639 11.5614 19.8055 11.4966 19.7357 11.4459C19.666 11.3951 19.5863 11.3594 19.502 11.3412Z"
    fill="currentColor"
  />
</svg>
